<?xml version="1.0" encoding="UTF-8" standalone="no"?>
<!-- Generator: Adobe Illustrator 17.1.0, SVG Export Plug-In . SVG Version: 6.00 Build 0)  -->

<svg
   xmlns:dc="http://purl.org/dc/elements/1.1/"
   xmlns:cc="http://creativecommons.org/ns#"
   xmlns:rdf="http://www.w3.org/1999/02/22-rdf-syntax-ns#"
   xmlns:svg="http://www.w3.org/2000/svg"
   xmlns="http://www.w3.org/2000/svg"
   xmlns:sodipodi="http://sodipodi.sourceforge.net/DTD/sodipodi-0.dtd"
   xmlns:inkscape="http://www.inkscape.org/namespaces/inkscape"
   version="1.1"
   x="0px"
   y="0px"
   width="24px"
   height="24px"
   viewBox="0 0 24 24"
   enable-background="new 0 0 24 24"
   xml:space="preserve"
   id="svg2"
   inkscape:version="0.48.4 r9939"
   sodipodi:docname="add_attach_file_24px_white.svg"><metadata
     id="metadata24"><rdf:RDF><cc:Work
         rdf:about=""><dc:format>image/svg+xml</dc:format><dc:type
           rdf:resource="http://purl.org/dc/dcmitype/StillImage" /></cc:Work></rdf:RDF></metadata><defs
     id="defs22" /><sodipodi:namedview
     pagecolor="#ffffff"
     bordercolor="#666666"
     borderopacity="1"
     objecttolerance="10"
     gridtolerance="10"
     guidetolerance="10"
     inkscape:pageopacity="0"
     inkscape:pageshadow="2"
     inkscape:window-width="1301"
     inkscape:window-height="744"
     id="namedview20"
     showgrid="false"
     inkscape:zoom="9.8333333"
     inkscape:cx="-10.322034"
     inkscape:cy="12"
     inkscape:window-x="65"
     inkscape:window-y="24"
     inkscape:window-maximized="1"
     inkscape:current-layer="g11" /><g
     id="Header"><g
       id="g5"><rect
         x="-618"
         y="-1720"
         fill="none"
         width="1400"
         height="3600"
         id="rect7" /></g></g><g
     id="Label" /><g
     id="Icon"><g
       id="g11"><path
         d="M16.5,6v11.5c0,2.2-1.8,4-4,4s-4-1.8-4-4V5c0-1.4,1.1-2.5,2.5-2.5s2.5,1.1,2.5,2.5v10.5c0,0.6-0.4,1-1,1s-1-0.4-1-1V6H10    v9.5c0,1.4,1.1,2.5,2.5,2.5s2.5-1.1,2.5-2.5V5c0-2.2-1.8-4-4-4S7,2.8,7,5v12.5c0,3,2.5,5.5,5.5,5.5s5.5-2.5,5.5-5.5V6H16.5z"
         id="path13"
         style="fill:#ffffff;fill-opacity:1" /><rect
         fill="none"
         width="24"
         height="24"
         id="rect15" /></g></g><g
     id="Grid"
     display="none"><g
       display="inline"
       id="g18" /></g></svg>