<?xml version="1.0" encoding="UTF-8" standalone="no"?>
<!-- Generator: Adobe Illustrator 17.1.0, SVG Export Plug-In . SVG Version: 6.00 Build 0)  -->

<svg
   xmlns:ns="&amp;ns_sfw;"
   xmlns:dc="http://purl.org/dc/elements/1.1/"
   xmlns:cc="http://creativecommons.org/ns#"
   xmlns:rdf="http://www.w3.org/1999/02/22-rdf-syntax-ns#"
   xmlns:svg="http://www.w3.org/2000/svg"
   xmlns="http://www.w3.org/2000/svg"
   xmlns:sodipodi="http://sodipodi.sourceforge.net/DTD/sodipodi-0.dtd"
   xmlns:inkscape="http://www.inkscape.org/namespaces/inkscape"
   version="1.1"
   x="0px"
   y="0px"
   width="24px"
   height="24px"
   viewBox="0 0 24 24"
   enable-background="new 0 0 24 24"
   xml:space="preserve"
   id="svg2"
   inkscape:version="0.48.4 r9939"
   sodipodi:docname="ic_add_shopping_cart_24px_white.svg"><defs
     id="defs26" /><sodipodi:namedview
     pagecolor="#ffffff"
     bordercolor="#666666"
     borderopacity="1"
     objecttolerance="10"
     gridtolerance="10"
     guidetolerance="10"
     inkscape:pageopacity="0"
     inkscape:pageshadow="2"
     inkscape:window-width="1301"
     inkscape:window-height="744"
     id="namedview24"
     showgrid="false"
     inkscape:zoom="9.8333333"
     inkscape:cx="-10.322034"
     inkscape:cy="16.209622"
     inkscape:window-x="65"
     inkscape:window-y="24"
     inkscape:window-maximized="1"
     inkscape:current-layer="g13" /><metadata
     id="metadata4"><ns:sfw><ns:slices /><ns:sliceSourceBounds
         width="1400"
         height="3600"
         y="-3112"
         x="-3"
         bottomLeftOrigin="true" /></ns:sfw><rdf:RDF><cc:Work
         rdf:about=""><dc:format>image/svg+xml</dc:format><dc:type
           rdf:resource="http://purl.org/dc/dcmitype/StillImage" /></cc:Work></rdf:RDF></metadata><g
     id="Header"><g
       id="g7"><rect
         x="-618"
         y="-696"
         fill="none"
         width="1400"
         height="3600"
         id="rect9" /></g></g><g
     id="Label" /><g
     id="Icon"><g
       id="g13"><rect
         fill="none"
         width="24"
         height="24"
         id="rect15" /><polygon
         fill="none"
         points="18.3,6 18.3,6 15.6,11   "
         id="polygon17" /><path
         d="M11,9h2V6h3V4h-3V1h-2v3H8v2h3V9z M7,18c-1.1,0-2,0.9-2,2s0.9,2,2,2s2-0.9,2-2S8.1,18,7,18z M17,18c-1.1,0-2,0.9-2,2    s0.9,2,2,2s2-0.9,2-2S18.1,18,17,18z M7.2,14.8c0,0,0-0.1,0-0.1L8.1,13h7.4c0.8,0,1.4-0.4,1.7-1l3.9-7l-1.7-1h0l-1.1,2l-2.8,5h-7    l-0.1-0.3L6.2,6L5.2,4L4.3,2H1v2h2l3.6,7.6L5.2,14C5.1,14.3,5,14.7,5,15c0,1.1,0.9,2,2,2h12v-2H7.4C7.3,15,7.2,14.9,7.2,14.8z"
         id="path19"
         style="fill:#ffffff;fill-opacity:1" /></g></g><g
     id="Grid"
     display="none"><g
       display="inline"
       id="g22" /></g></svg>