<?xml version="1.0" encoding="UTF-8" standalone="no"?>
<!-- Generator: Adobe Illustrator 17.1.0, SVG Export Plug-In . SVG Version: 6.00 Build 0)  -->

<svg
   xmlns:dc="http://purl.org/dc/elements/1.1/"
   xmlns:cc="http://creativecommons.org/ns#"
   xmlns:rdf="http://www.w3.org/1999/02/22-rdf-syntax-ns#"
   xmlns:svg="http://www.w3.org/2000/svg"
   xmlns="http://www.w3.org/2000/svg"
   xmlns:sodipodi="http://sodipodi.sourceforge.net/DTD/sodipodi-0.dtd"
   xmlns:inkscape="http://www.inkscape.org/namespaces/inkscape"
   version="1.1"
   x="0px"
   y="0px"
   width="24px"
   height="24px"
   viewBox="0 0 24 24"
   enable-background="new 0 0 24 24"
   xml:space="preserve"
   id="svg2"
   inkscape:version="0.48.4 r9939"
   sodipodi:docname="ic_attach_money_24px_white.svg"><metadata
     id="metadata24"><rdf:RDF><cc:Work
         rdf:about=""><dc:format>image/svg+xml</dc:format><dc:type
           rdf:resource="http://purl.org/dc/dcmitype/StillImage" /></cc:Work></rdf:RDF></metadata><defs
     id="defs22" /><sodipodi:namedview
     pagecolor="#ffffff"
     bordercolor="#666666"
     borderopacity="1"
     objecttolerance="10"
     gridtolerance="10"
     guidetolerance="10"
     inkscape:pageopacity="0"
     inkscape:pageshadow="2"
     inkscape:window-width="840"
     inkscape:window-height="480"
     id="namedview20"
     showgrid="false"
     inkscape:zoom="9.8333333"
     inkscape:cx="12"
     inkscape:cy="12"
     inkscape:window-x="75"
     inkscape:window-y="34"
     inkscape:window-maximized="0"
     inkscape:current-layer="g10" /><g
     id="Header"><g
       id="g5"><rect
         x="-618"
         y="-568"
         fill="none"
         width="1400"
         height="3600"
         id="rect7" /></g></g><g
     id="Label"><g
       id="g10"><path
         d="M11.8,10.9c-2.3-0.6-3-1.2-3-2.1c0-1.1,1-1.9,2.7-1.9c1.8,0,2.4,0.8,2.5,2.1h2.2c-0.1-1.7-1.1-3.3-3.2-3.8V3h-3v2.2    C8.1,5.6,6.5,6.8,6.5,8.8c0,2.3,1.9,3.5,4.7,4.1c2.5,0.6,3,1.5,3,2.4c0,0.7-0.5,1.8-2.7,1.8c-2.1,0-2.9-0.9-3-2.1H6.3    c0.1,2.2,1.8,3.4,3.7,3.8V21h3v-2.2c1.9-0.4,3.5-1.5,3.5-3.6C16.5,12.5,14.1,11.5,11.8,10.9z"
         id="path12"
         style="fill:#ffffff;fill-opacity:1" /><rect
         fill="none"
         width="24"
         height="24"
         id="rect14" /></g></g><g
     id="Icon" /><g
     id="Grid"
     display="none"><g
       display="inline"
       id="g18" /></g></svg>