<?xml version="1.0" encoding="UTF-8" standalone="no"?>
<!-- Generator: Adobe Illustrator 17.1.0, SVG Export Plug-In . SVG Version: 6.00 Build 0)  -->

<svg
   xmlns:ns="&amp;ns_sfw;"
   xmlns:dc="http://purl.org/dc/elements/1.1/"
   xmlns:cc="http://creativecommons.org/ns#"
   xmlns:rdf="http://www.w3.org/1999/02/22-rdf-syntax-ns#"
   xmlns:svg="http://www.w3.org/2000/svg"
   xmlns="http://www.w3.org/2000/svg"
   xmlns:sodipodi="http://sodipodi.sourceforge.net/DTD/sodipodi-0.dtd"
   xmlns:inkscape="http://www.inkscape.org/namespaces/inkscape"
   version="1.1"
   x="0px"
   y="0px"
   width="24px"
   height="24px"
   viewBox="0 0 24 24"
   enable-background="new 0 0 24 24"
   xml:space="preserve"
   id="svg2"
   inkscape:version="0.48.4 r9939"
   sodipodi:docname="ic_drawer_24px_white.svg"><defs
     id="defs22" /><sodipodi:namedview
     pagecolor="#ffffff"
     bordercolor="#666666"
     borderopacity="1"
     objecttolerance="10"
     gridtolerance="10"
     guidetolerance="10"
     inkscape:pageopacity="0"
     inkscape:pageshadow="2"
     inkscape:window-width="1301"
     inkscape:window-height="744"
     id="namedview20"
     showgrid="false"
     inkscape:zoom="9.8333333"
     inkscape:cx="12"
     inkscape:cy="12"
     inkscape:window-x="65"
     inkscape:window-y="24"
     inkscape:window-maximized="1"
     inkscape:current-layer="g11" /><metadata
     id="metadata4"><ns:sfw><ns:slices /><ns:sliceSourceBounds
         width="1400"
         height="3600"
         y="-3112"
         x="-3"
         bottomLeftOrigin="true" /></ns:sfw><rdf:RDF><cc:Work
         rdf:about=""><dc:format>image/svg+xml</dc:format><dc:type
           rdf:resource="http://purl.org/dc/dcmitype/StillImage" /></cc:Work></rdf:RDF></metadata><g
     id="Header"><rect
       x="-618"
       y="-1720"
       fill="none"
       width="1400"
       height="3600"
       id="rect7" /></g><g
     id="Label" /><g
     id="Icon"><g
       id="g11"><rect
         fill="none"
         width="24"
         height="24"
         id="rect13" /><path
         d="M12,8c1.1,0,2-0.9,2-2s-0.9-2-2-2c-1.1,0-2,0.9-2,2S10.9,8,12,8z M12,10c-1.1,0-2,0.9-2,2s0.9,2,2,2c1.1,0,2-0.9,2-2    S13.1,10,12,10z M12,16c-1.1,0-2,0.9-2,2s0.9,2,2,2c1.1,0,2-0.9,2-2S13.1,16,12,16z"
         id="path15"
         style="fill:#ffffff;fill-opacity:1" /></g></g><g
     id="Grid"
     display="none"><g
       display="inline"
       id="g18" /></g></svg>