<?xml version="1.0" encoding="UTF-8" standalone="no"?>
<!-- Generator: Adobe Illustrator 17.1.0, SVG Export Plug-In . SVG Version: 6.00 Build 0)  -->

<svg
   xmlns:dc="http://purl.org/dc/elements/1.1/"
   xmlns:cc="http://creativecommons.org/ns#"
   xmlns:rdf="http://www.w3.org/1999/02/22-rdf-syntax-ns#"
   xmlns:svg="http://www.w3.org/2000/svg"
   xmlns="http://www.w3.org/2000/svg"
   xmlns:sodipodi="http://sodipodi.sourceforge.net/DTD/sodipodi-0.dtd"
   xmlns:inkscape="http://www.inkscape.org/namespaces/inkscape"
   version="1.1"
   x="0px"
   y="0px"
   width="48px"
   height="48px"
   viewBox="0 0 48 48"
   enable-background="new 0 0 48 48"
   xml:space="preserve"
   id="svg2"
   inkscape:version="0.48.4 r9939"
   sodipodi:docname="ic_people_48px_white.svg"><metadata
     id="metadata28"><rdf:RDF><cc:Work
         rdf:about=""><dc:format>image/svg+xml</dc:format><dc:type
           rdf:resource="http://purl.org/dc/dcmitype/StillImage" /></cc:Work></rdf:RDF></metadata><defs
     id="defs26" /><sodipodi:namedview
     pagecolor="#ffffff"
     bordercolor="#666666"
     borderopacity="1"
     objecttolerance="10"
     gridtolerance="10"
     guidetolerance="10"
     inkscape:pageopacity="0"
     inkscape:pageshadow="2"
     inkscape:window-width="1301"
     inkscape:window-height="744"
     id="namedview24"
     showgrid="false"
     inkscape:zoom="4.9166667"
     inkscape:cx="-20.644068"
     inkscape:cy="24"
     inkscape:window-x="65"
     inkscape:window-y="24"
     inkscape:window-maximized="1"
     inkscape:current-layer="g11" /><g
     id="Header"><g
       id="g5"><rect
         x="-838"
         y="-2616"
         fill="none"
         width="1400"
         height="3600"
         id="rect7" /></g></g><g
     id="Label" /><g
     id="g11"><g
       id="g13"><rect
         style="fill:none"
         y="0"
         x="0"
         id="rect15"
         height="48"
         width="48" /></g><path
       inkscape:connector-curvature="0"
       id="path17"
       d="m 32,22 c 3.3,0 6,-2.7 6,-6 0,-3.3 -2.7,-6 -6,-6 -3.3,0 -6,2.7 -6,6 0,3.3 2.7,6 6,6 z m -16,0 c 3.3,0 6,-2.7 6,-6 0,-3.3 -2.7,-6 -6,-6 -3.3,0 -6,2.7 -6,6 0,3.3 2.7,6 6,6 z m 0,4 C 11.3,26 2,28.3 2,33 v 5 h 28 v -5 c 0,-4.7 -9.3,-7 -14,-7 z m 16,0 c -0.6,0 -1.2,0 -1.9,0.1 2.3,1.7 3.9,3.9 3.9,6.9 v 5 h 12 v -5 c 0,-4.7 -9.3,-7 -14,-7 z"
       style="fill:#ffffff;fill-opacity:1" /></g><g
     id="Grid"
     display="none"><g
       display="inline"
       id="g20"><line
         fill="none"
         stroke="#00E5FF"
         stroke-width="0.1"
         stroke-miterlimit="10"
         x1="42"
         y1="-2616"
         x2="42"
         y2="936"
         id="line22" /></g></g></svg>