<?xml version="1.0" encoding="UTF-8" standalone="no"?>
<!-- Generator: Adobe Illustrator 17.1.0, SVG Export Plug-In . SVG Version: 6.00 Build 0)  -->

<svg
   xmlns:dc="http://purl.org/dc/elements/1.1/"
   xmlns:cc="http://creativecommons.org/ns#"
   xmlns:rdf="http://www.w3.org/1999/02/22-rdf-syntax-ns#"
   xmlns:svg="http://www.w3.org/2000/svg"
   xmlns="http://www.w3.org/2000/svg"
   xmlns:sodipodi="http://sodipodi.sourceforge.net/DTD/sodipodi-0.dtd"
   xmlns:inkscape="http://www.inkscape.org/namespaces/inkscape"
   version="1.1"
   x="0px"
   y="0px"
   width="24px"
   height="24px"
   viewBox="0 0 24 24"
   enable-background="new 0 0 24 24"
   xml:space="preserve"
   id="svg2"
   inkscape:version="0.48.4 r9939"
   sodipodi:docname="ic_people_24px_white.svg"><metadata
     id="metadata26"><rdf:RDF><cc:Work
         rdf:about=""><dc:format>image/svg+xml</dc:format><dc:type
           rdf:resource="http://purl.org/dc/dcmitype/StillImage" /></cc:Work></rdf:RDF></metadata><defs
     id="defs24" /><sodipodi:namedview
     pagecolor="#ffffff"
     bordercolor="#666666"
     borderopacity="1"
     objecttolerance="10"
     gridtolerance="10"
     guidetolerance="10"
     inkscape:pageopacity="0"
     inkscape:pageshadow="2"
     inkscape:window-width="1301"
     inkscape:window-height="744"
     id="namedview22"
     showgrid="false"
     inkscape:zoom="9.8333333"
     inkscape:cx="-10.322034"
     inkscape:cy="12"
     inkscape:window-x="65"
     inkscape:window-y="24"
     inkscape:window-maximized="1"
     inkscape:current-layer="g11" /><g
     id="Header"><g
       id="g5"><rect
         x="-618"
         y="-2616"
         fill="none"
         width="1400"
         height="3600"
         id="rect7" /></g></g><g
     id="Label" /><g
     id="g11"><g
       id="g13"><rect
         style="fill:none"
         y="0"
         x="0"
         id="rect15"
         height="24"
         width="24" /></g><path
       inkscape:connector-curvature="0"
       id="path17"
       d="m 16,11 c 1.7,0 3,-1.3 3,-3 0,-1.7 -1.3,-3 -3,-3 -1.7,0 -3,1.3 -3,3 0,1.7 1.3,3 3,3 z M 8,11 C 9.7,11 11,9.7 11,8 11,6.3 9.7,5 8,5 6.3,5 5,6.3 5,8 c 0,1.7 1.3,3 3,3 z m 0,2 C 5.7,13 1,14.2 1,16.5 V 19 H 15 V 16.5 C 15,14.2 10.3,13 8,13 z m 8,0 c -0.3,0 -0.6,0 -1,0.1 1.2,0.8 2,2 2,3.4 V 19 h 6 V 16.5 C 23,14.2 18.3,13 16,13 z"
       style="fill:#ffffff;fill-opacity:1" /></g><g
     id="Grid"
     display="none"><g
       display="inline"
       id="g20" /></g></svg>