<?xml version="1.0" encoding="UTF-8" standalone="no"?>
<!-- Generator: Adobe Illustrator 17.1.0, SVG Export Plug-In . SVG Version: 6.00 Build 0)  -->

<svg
   xmlns:dc="http://purl.org/dc/elements/1.1/"
   xmlns:cc="http://creativecommons.org/ns#"
   xmlns:rdf="http://www.w3.org/1999/02/22-rdf-syntax-ns#"
   xmlns:svg="http://www.w3.org/2000/svg"
   xmlns="http://www.w3.org/2000/svg"
   xmlns:sodipodi="http://sodipodi.sourceforge.net/DTD/sodipodi-0.dtd"
   xmlns:inkscape="http://www.inkscape.org/namespaces/inkscape"
   version="1.1"
   x="0px"
   y="0px"
   width="48"
   height="48"
   viewBox="0 0 48 48"
   enable-background="new 0 0 24 24"
   xml:space="preserve"
   id="svg2"
   inkscape:version="0.48.4 r9939"
   sodipodi:docname="invoice_48px.svg"><metadata
     id="metadata26"><rdf:RDF><cc:Work
         rdf:about=""><dc:format>image/svg+xml</dc:format><dc:type
           rdf:resource="http://purl.org/dc/dcmitype/StillImage" /></cc:Work></rdf:RDF></metadata><defs
     id="defs24" /><sodipodi:namedview
     pagecolor="#000000"
     bordercolor="#666666"
     borderopacity="1"
     objecttolerance="10"
     gridtolerance="10"
     guidetolerance="10"
     inkscape:pageopacity="0"
     inkscape:pageshadow="2"
     inkscape:window-width="1301"
     inkscape:window-height="744"
     id="namedview22"
     showgrid="false"
     inkscape:zoom="4.9166667"
     inkscape:cx="-11.45241"
     inkscape:cy="1.3140165"
     inkscape:window-x="65"
     inkscape:window-y="24"
     inkscape:window-maximized="1"
     inkscape:current-layer="g10" /><g
     id="Header"
     transform="translate(0,24)"><g
       id="g5"><rect
         x="-618"
         y="-696"
         width="1400"
         height="3600"
         id="rect7"
         style="fill:none" /></g></g><g
     id="Label"
     transform="translate(0,24)"><g
       id="g10"><path
         d="m 11.288135,-21.18644 c -2.3305082,0 -4.2372879,1.90678 -4.2372879,4.237288 l 0,33.898304 c 0,2.330508 1.9067797,4.237288 4.2372879,4.237288 l 25.42373,0 c 2.330508,0 4.237288,-1.90678 4.237288,-4.237288 l 0,-25.4237269 -12.711865,-12.7118651 -16.949153,0 z m 14.830509,3.177966 11.652543,11.652543 -11.652543,0 0,-11.652543 z m -9.864936,9.1366531 2.449682,0 0,3.3103815 c 0.870047,0.039576 1.632051,0.1530932 2.383474,0.3310381 0.751401,0.1779873 1.352566,0.3714894 1.787606,0.529661 l -0.529661,2.3172641 c -0.474589,-0.1779449 -1.075754,-0.351678 -1.787606,-0.529661 -0.711875,-0.1977331 -1.580516,-0.331017 -2.648305,-0.331036 -1.186447,1.9e-5 -2.128184,0.2072881 -2.78072,0.6620741 -0.632773,0.45482 -0.926911,1.0895297 -0.926907,1.92002129 -4e-6,0.45481782 0.08687,0.87536871 0.264831,1.19173731 0.197733,0.3163983 0.438553,0.6036505 0.794491,0.8606992 0.355926,0.2373009 0.783363,0.4643496 1.257945,0.6620784 0.494343,0.1977543 1.061962,0.3783666 1.655191,0.5958687 0.771178,0.2966229 1.492752,0.6105339 2.184851,0.9269068 0.692079,0.3163962 1.273471,0.736945 1.787606,1.1917373 0.533886,0.4350382 0.941547,0.9097903 1.257945,1.5227734 0.316371,0.6130022 0.529647,1.3810107 0.529661,2.2510594 -1.4e-5,1.4039573 -0.473883,2.5065343 -1.324152,3.3765893 -0.850295,0.850284 -2.1266,1.437676 -3.90625,1.655191 l 0,3.773834 -2.449682,0 0,-3.707627 c -1.384187,-0.03956 -2.572744,-0.206398 -3.442797,-0.463453 -0.87006,-0.276835 -1.484996,-0.490996 -1.920021,-0.728284 l 0.728284,-2.25106 c 0.593218,0.276839 1.288131,0.557206 2.118644,0.794492 0.830504,0.23729 1.885763,0.33104 3.111758,0.331038 1.522589,2e-6 2.564962,-0.253705 3.177966,-0.728284 0.612983,-0.494347 0.926896,-1.102396 0.926907,-1.8538134 C 20.954438,8.1857403 20.834025,7.7445327 20.557203,7.3490454 20.300131,6.9535729 19.952674,6.586342 19.497882,6.2897233 19.062843,5.9931237 18.50211,5.7325305 17.908898,5.4952339 17.335445,5.2579563 16.800487,4.9844733 16.1875,4.7669499 15.594273,4.5494457 14.993108,4.3619457 14.399894,4.1048737 13.826443,3.8280495 13.26571,3.4874774 12.810911,3.1117592 12.356106,2.716291 11.981989,2.25531 11.685381,1.7213969 c -0.276839,-0.553659 -0.397248,-1.261462 -0.397246,-2.05243656 -2e-6,-1.40393864 0.427435,-2.55294924 1.257945,-3.44279464 0.850278,-0.9095837 2.105929,-1.484088 3.707628,-1.7213973 l 0,-3.3765893 z"
         id="path12-7"
         inkscape:connector-curvature="0"
         style="fill:#000000;fill-opacity:1" /></g></g><g
     id="Icon"
     transform="translate(0,24)" /><g
     id="Grid"
     display="none"
     style="display:none"
     transform="translate(0,24)"><g
       display="inline"
       id="g20"
       style="display:inline" /></g></svg>