<?xml version="1.0" encoding="UTF-8" standalone="no"?>
<!-- Generator: Adobe Illustrator 17.1.0, SVG Export Plug-In . SVG Version: 6.00 Build 0)  -->

<svg
   xmlns:dc="http://purl.org/dc/elements/1.1/"
   xmlns:cc="http://creativecommons.org/ns#"
   xmlns:rdf="http://www.w3.org/1999/02/22-rdf-syntax-ns#"
   xmlns:svg="http://www.w3.org/2000/svg"
   xmlns="http://www.w3.org/2000/svg"
   xmlns:sodipodi="http://sodipodi.sourceforge.net/DTD/sodipodi-0.dtd"
   xmlns:inkscape="http://www.inkscape.org/namespaces/inkscape"
   version="1.1"
   x="0px"
   y="0px"
   width="24px"
   height="24px"
   viewBox="0 0 24 24"
   enable-background="new 0 0 24 24"
   xml:space="preserve"
   id="svg2"
   inkscape:version="0.48.4 r9939"
   sodipodi:docname="invoice.svg"><metadata
     id="metadata26"><rdf:RDF><cc:Work
         rdf:about=""><dc:format>image/svg+xml</dc:format><dc:type
           rdf:resource="http://purl.org/dc/dcmitype/StillImage" /></cc:Work></rdf:RDF></metadata><defs
     id="defs24" /><sodipodi:namedview
     pagecolor="#ffffff"
     bordercolor="#666666"
     borderopacity="1"
     objecttolerance="10"
     gridtolerance="10"
     guidetolerance="10"
     inkscape:pageopacity="0"
     inkscape:pageshadow="2"
     inkscape:window-width="1301"
     inkscape:window-height="744"
     id="namedview22"
     showgrid="false"
     inkscape:zoom="9.8333333"
     inkscape:cx="-0.71629254"
     inkscape:cy="7.3294846"
     inkscape:window-x="65"
     inkscape:window-y="24"
     inkscape:window-maximized="1"
     inkscape:current-layer="g10" /><g
     id="Header"><g
       id="g5"><rect
         x="-618"
         y="-696"
         fill="none"
         width="1400"
         height="3600"
         id="rect7" /></g></g><g
     id="Label"><g
       id="g10"><g
         id="g14"><rect
           fill="none"
           width="24"
           height="24"
           id="rect16" /></g><path
         d="m 6.0000002,2.0000005 c -1.1,0 -2,0.9 -2,1.9999996 l 0,15.9999989 c 0,1.1 0.9,2 2,2 l 11.9999998,0 c 1.1,0 2,-0.9 2,-2 l 0,-11.9999985 -6,-5.9999999 -7.9999998,0 z m 6.9999998,1.5 5.5,5.4999999 -5.5,0 0,-5.4999999 z m -4.6562498,4.3124999 1.15625,0 0,1.5625 c 0.410662,0.01868 0.7703278,0.07226 1.1249998,0.15625 0.354661,0.08401 0.638411,0.175343 0.84375,0.25 l -0.25,1.0937486 c -0.224006,-0.08399 -0.507756,-0.165992 -0.84375,-0.25 -0.336005,-0.09333 -0.7460038,-0.15624 -1.2499998,-0.156249 -0.560003,9e-6 -1.004503,0.09784 -1.3125,0.312499 -0.298669,0.214675 -0.437502,0.514258 -0.4375,0.90625 -2e-6,0.214674 0.041,0.413174 0.125,0.5625 0.09333,0.14934 0.206997,0.284923 0.375,0.40625 0.167997,0.112006 0.369747,0.219173 0.59375,0.312501 0.23333,0.09334 0.501246,0.178589 0.78125,0.28125 0.363996,0.140006 0.704579,0.288172 1.0312498,0.4375 0.326661,0.149339 0.601078,0.347838 0.84375,0.5625 0.251994,0.205338 0.44441,0.429421 0.59375,0.718749 0.149327,0.289337 0.249993,0.651837 0.25,1.0625 -7e-6,0.662668 -0.223673,1.183084 -0.625,1.59375 -0.401339,0.401334 -1.003755,0.678583 -1.8437498,0.78125 l 0,1.78125 -1.15625,0 0,-1.75 c -0.653336,-0.01867 -1.214335,-0.09742 -1.625,-0.21875 -0.410668,-0.130666 -0.7009181,-0.23175 -0.90625,-0.34375 l 0.34375,-1.0625 c 0.279999,0.130668 0.6079979,0.263001 1,0.375 0.391998,0.112001 0.89008,0.156251 1.46875,0.15625 0.718662,1e-6 1.210662,-0.119749 1.4999998,-0.34375 0.289328,-0.233332 0.437495,-0.520331 0.4375,-0.875 -5e-6,-0.26133 -0.05684,-0.46958 -0.1875,-0.65625 -0.121338,-0.186663 -0.285338,-0.359996 -0.4999998,-0.5 -0.205338,-0.139995 -0.470004,-0.262995 -0.75,-0.374999 -0.27067,-0.111995 -0.52317,-0.241079 -0.8125,-0.34375 -0.280003,-0.102662 -0.563753,-0.191162 -0.84375,-0.3125 -0.2706691,-0.130661 -0.535335,-0.291411 -0.75,-0.46875 -0.214668,-0.186661 -0.391251,-0.404244 -0.53125,-0.656251 -0.130668,-0.261327 -0.187501,-0.59541 -0.1875,-0.96875 -10e-7,-0.662659 0.201749,-1.204992 0.59375,-1.624999 0.401331,-0.4293235 0.993998,-0.7004895 1.75,-0.8124995 l 0,-1.5937501 z"
         id="path12-7"
         inkscape:connector-curvature="0" /></g></g><g
     id="Icon" /><g
     id="Grid"
     display="none"><g
       display="inline"
       id="g20" /></g></svg>